<svg xmlns="http://www.w3.org/2000/svg" version="1.1" xmlns:xlink="http://www.w3.org/1999/xlink" width="1000" height="1000"><metadata><rdf:RDF xmlns:rdf="http://www.w3.org/1999/02/22-rdf-syntax-ns#" xmlns:dc="http://purl.org/dc/elements/1.1/"><rdf:Description><dc:creator>RealFaviconGenerator</dc:creator><dc:source>https://realfavicongenerator.net</dc:source></rdf:Description></rdf:RDF></metadata><style>
    #light-icon {
      display: inline;
    }
    #dark-icon {
      display: none;
    }

    @media (prefers-color-scheme: dark) {
      #light-icon {
        display: none;
      }
      #dark-icon {
        display: inline;
      }
    }
  </style><g id="light-icon"><svg xmlns="http://www.w3.org/2000/svg" version="1.1" xmlns:xlink="http://www.w3.org/1999/xlink" width="1000" height="1000"><g><g transform="matrix(20,0,0,20,0,0)"><svg xmlns="http://www.w3.org/2000/svg" width="50" height="50" viewBox="0 0 50 50" fill="none"><path fill-rule="evenodd" clip-rule="evenodd" d="M30.3563 50C28.3838 50 26.7849 48.401 26.7849 46.4286V30.3572C26.7849 28.3847 28.3838 26.7857 30.3563 26.7857H46.4272C48.3996 26.7857 49.9985 28.3847 49.9985 30.3572V50H30.3563ZM38.0703 23.2143H30.3563C28.3838 23.2143 26.7849 21.6153 26.7849 19.6428V11.9285C26.7849 9.9561 28.3838 8.35711 30.3563 8.35711H41.6416V19.6428C41.6416 21.6153 40.0427 23.2143 38.0703 23.2143ZM19.6423 41.6429H8.35694V30.3572C8.35694 28.3847 9.95581 26.7857 11.9282 26.7857H19.6423C21.6147 26.7857 23.2136 28.3847 23.2136 30.3572V38.0714C23.2136 40.0439 21.6147 41.6429 19.6423 41.6429ZM19.6423 23.2143H3.57132C1.59896 23.2143 0 21.6153 0 19.6428V0H19.6423C21.6147 0 23.2136 1.59899 23.2136 3.57143V19.6428C23.2136 21.6153 21.6147 23.2143 19.6423 23.2143Z" fill="#00674F"></path><path fill-rule="evenodd" clip-rule="evenodd" d="M30.3563 50C28.3838 50 26.7849 48.401 26.7849 46.4286V30.3572C26.7849 28.3847 28.3838 26.7857 30.3563 26.7857H46.4272C48.3996 26.7857 49.9985 28.3847 49.9985 30.3572V50H30.3563ZM38.0703 23.2143H30.3563C28.3838 23.2143 26.7849 21.6153 26.7849 19.6428V11.9285C26.7849 9.9561 28.3838 8.35711 30.3563 8.35711H41.6416V19.6428C41.6416 21.6153 40.0427 23.2143 38.0703 23.2143ZM19.6423 41.6429H8.35694V30.3572C8.35694 28.3847 9.95581 26.7857 11.9282 26.7857H19.6423C21.6147 26.7857 23.2136 28.3847 23.2136 30.3572V38.0714C23.2136 40.0439 21.6147 41.6429 19.6423 41.6429ZM19.6423 23.2143H3.57132C1.59896 23.2143 0 21.6153 0 19.6428V0H19.6423C21.6147 0 23.2136 1.59899 23.2136 3.57143V19.6428C23.2136 21.6153 21.6147 23.2143 19.6423 23.2143Z" fill="#00674F"></path><path fill-rule="evenodd" clip-rule="evenodd" d="M30.3563 50C28.3838 50 26.7849 48.401 26.7849 46.4286V30.3572C26.7849 28.3847 28.3838 26.7857 30.3563 26.7857H46.4272C48.3996 26.7857 49.9985 28.3847 49.9985 30.3572V50H30.3563ZM38.0703 23.2143H30.3563C28.3838 23.2143 26.7849 21.6153 26.7849 19.6428V11.9285C26.7849 9.9561 28.3838 8.35711 30.3563 8.35711H41.6416V19.6428C41.6416 21.6153 40.0427 23.2143 38.0703 23.2143ZM19.6423 41.6429H8.35694V30.3572C8.35694 28.3847 9.95581 26.7857 11.9282 26.7857H19.6423C21.6147 26.7857 23.2136 28.3847 23.2136 30.3572V38.0714C23.2136 40.0439 21.6147 41.6429 19.6423 41.6429ZM19.6423 23.2143H3.57132C1.59896 23.2143 0 21.6153 0 19.6428V0H19.6423C21.6147 0 23.2136 1.59899 23.2136 3.57143V19.6428C23.2136 21.6153 21.6147 23.2143 19.6423 23.2143Z" fill="#00674F"></path><path fill-rule="evenodd" clip-rule="evenodd" d="M30.3563 50C28.3838 50 26.7849 48.401 26.7849 46.4286V30.3572C26.7849 28.3847 28.3838 26.7857 30.3563 26.7857H46.4272C48.3996 26.7857 49.9985 28.3847 49.9985 30.3572V50H30.3563ZM38.0703 23.2143H30.3563C28.3838 23.2143 26.7849 21.6153 26.7849 19.6428V11.9285C26.7849 9.9561 28.3838 8.35711 30.3563 8.35711H41.6416V19.6428C41.6416 21.6153 40.0427 23.2143 38.0703 23.2143ZM19.6423 41.6429H8.35694V30.3572C8.35694 28.3847 9.95581 26.7857 11.9282 26.7857H19.6423C21.6147 26.7857 23.2136 28.3847 23.2136 30.3572V38.0714C23.2136 40.0439 21.6147 41.6429 19.6423 41.6429ZM19.6423 23.2143H3.57132C1.59896 23.2143 0 21.6153 0 19.6428V0H19.6423C21.6147 0 23.2136 1.59899 23.2136 3.57143V19.6428C23.2136 21.6153 21.6147 23.2143 19.6423 23.2143Z" fill="#00674F"></path></svg></g></g></svg></g><g id="dark-icon"><svg xmlns="http://www.w3.org/2000/svg" version="1.1" xmlns:xlink="http://www.w3.org/1999/xlink" width="1000" height="1000"><g><g transform="matrix(0.5,0,0,0.5,0,0)"><svg xmlns="http://www.w3.org/2000/svg" width="2000" height="2000" viewBox="0 0 2000 2000" fill="none"><path fill-rule="evenodd" clip-rule="evenodd" d="M1214.29 2000C1135.39 2000 1071.43 1936.04 1071.43 1857.14V1214.29C1071.43 1135.39 1135.39 1071.43 1214.29 1071.43H1857.14C1936.04 1071.43 2000 1135.39 2000 1214.29V2000H1214.29ZM1522.86 928.571H1214.29C1135.39 928.571 1071.43 864.612 1071.43 785.714V477.142C1071.43 398.244 1135.39 334.285 1214.29 334.285H1665.71V785.714C1665.71 864.612 1601.76 928.571 1522.86 928.571ZM785.716 1665.71H334.288V1214.29C334.288 1135.39 398.244 1071.43 477.144 1071.43H785.716C864.612 1071.43 928.57 1135.39 928.57 1214.29V1522.86C928.57 1601.75 864.612 1665.71 785.716 1665.71ZM785.716 928.571H142.857C63.9603 928.571 0 864.612 0 785.714V0H785.716C864.612 0 928.57 63.9595 928.57 142.857V785.714C928.57 864.612 864.612 928.571 785.716 928.571Z" fill="#FAFAFA"></path><path fill-rule="evenodd" clip-rule="evenodd" d="M1214.29 2000C1135.39 2000 1071.43 1936.04 1071.43 1857.14V1214.29C1071.43 1135.39 1135.39 1071.43 1214.29 1071.43H1857.14C1936.04 1071.43 2000 1135.39 2000 1214.29V2000H1214.29ZM1522.86 928.571H1214.29C1135.39 928.571 1071.43 864.612 1071.43 785.714V477.142C1071.43 398.244 1135.39 334.285 1214.29 334.285H1665.71V785.714C1665.71 864.612 1601.76 928.571 1522.86 928.571ZM785.716 1665.71H334.288V1214.29C334.288 1135.39 398.244 1071.43 477.144 1071.43H785.716C864.612 1071.43 928.57 1135.39 928.57 1214.29V1522.86C928.57 1601.75 864.612 1665.71 785.716 1665.71ZM785.716 928.571H142.857C63.9603 928.571 0 864.612 0 785.714V0H785.716C864.612 0 928.57 63.9595 928.57 142.857V785.714C928.57 864.612 864.612 928.571 785.716 928.571Z" fill="#FAFAFA"></path><path fill-rule="evenodd" clip-rule="evenodd" d="M1214.29 2000C1135.39 2000 1071.43 1936.04 1071.43 1857.14V1214.29C1071.43 1135.39 1135.39 1071.43 1214.29 1071.43H1857.14C1936.04 1071.43 2000 1135.39 2000 1214.29V2000H1214.29ZM1522.86 928.571H1214.29C1135.39 928.571 1071.43 864.612 1071.43 785.714V477.142C1071.43 398.244 1135.39 334.285 1214.29 334.285H1665.71V785.714C1665.71 864.612 1601.76 928.571 1522.86 928.571ZM785.716 1665.71H334.288V1214.29C334.288 1135.39 398.244 1071.43 477.144 1071.43H785.716C864.612 1071.43 928.57 1135.39 928.57 1214.29V1522.86C928.57 1601.75 864.612 1665.71 785.716 1665.71ZM785.716 928.571H142.857C63.9603 928.571 0 864.612 0 785.714V0H785.716C864.612 0 928.57 63.9595 928.57 142.857V785.714C928.57 864.612 864.612 928.571 785.716 928.571Z" fill="#FAFAFA"></path><path fill-rule="evenodd" clip-rule="evenodd" d="M1214.29 2000C1135.39 2000 1071.43 1936.04 1071.43 1857.14V1214.29C1071.43 1135.39 1135.39 1071.43 1214.29 1071.43H1857.14C1936.04 1071.43 2000 1135.39 2000 1214.29V2000H1214.29ZM1522.86 928.571H1214.29C1135.39 928.571 1071.43 864.612 1071.43 785.714V477.142C1071.43 398.244 1135.39 334.285 1214.29 334.285H1665.71V785.714C1665.71 864.612 1601.76 928.571 1522.86 928.571ZM785.716 1665.71H334.288V1214.29C334.288 1135.39 398.244 1071.43 477.144 1071.43H785.716C864.612 1071.43 928.57 1135.39 928.57 1214.29V1522.86C928.57 1601.75 864.612 1665.71 785.716 1665.71ZM785.716 928.571H142.857C63.9603 928.571 0 864.612 0 785.714V0H785.716C864.612 0 928.57 63.9595 928.57 142.857V785.714C928.57 864.612 864.612 928.571 785.716 928.571Z" fill="#FAFAFA"></path></svg></g></g></svg></g></svg>